<?xml version="1.0" encoding="utf-8" ?>
<svg baseProfile="full" height="512" version="1.1" width="512" xmlns="http://www.w3.org/2000/svg" xmlns:ev="http://www.w3.org/2001/xml-events" xmlns:xlink="http://www.w3.org/1999/xlink"><defs /><path d="M 173,237 L 172,238 L 170,238 L 168,240 L 167,240 L 164,243 L 164,244 L 163,245 L 163,246 L 162,247 L 162,250 L 161,251 L 161,273 L 160,274 L 160,301 L 159,302 L 159,328 L 158,329 L 158,354 L 157,355 L 157,378 L 158,379 L 158,381 L 159,382 L 159,383 L 161,385 L 161,386 L 163,388 L 164,388 L 165,389 L 166,389 L 167,390 L 168,390 L 169,391 L 337,391 L 338,390 L 340,390 L 341,389 L 342,389 L 344,387 L 345,387 L 346,386 L 346,385 L 348,383 L 348,382 L 349,381 L 349,380 L 350,379 L 350,353 L 349,352 L 349,333 L 348,332 L 348,313 L 347,312 L 347,291 L 346,290 L 346,268 L 345,267 L 345,250 L 344,249 L 344,246 L 343,245 L 343,244 L 338,239 L 337,239 L 336,238 L 335,238 L 334,237 L 259,237 L 259,247 L 307,247 L 308,248 L 330,248 L 331,249 L 332,249 L 334,251 L 334,252 L 335,253 L 335,296 L 336,297 L 336,301 L 334,303 L 269,303 L 268,302 L 266,302 L 264,300 L 263,300 L 261,298 L 261,297 L 260,296 L 260,295 L 259,294 L 259,286 L 259,287 L 257,289 L 256,288 L 259,291 L 257,293 L 255,293 L 254,292 L 254,293 L 253,294 L 252,293 L 252,291 L 251,292 L 250,291 L 251,292 L 250,293 L 249,293 L 248,292 L 248,291 L 248,295 L 246,297 L 246,298 L 244,300 L 243,300 L 241,302 L 239,302 L 238,303 L 172,303 L 171,302 L 171,254 L 172,253 L 172,252 L 176,248 L 216,248 L 217,247 L 248,247 L 248,237 Z" fill="#efe1c4" stroke="none" /><path d="M 341,125 L 341,126 L 342,125 Z" fill="#efe1c4" stroke="none" /><path d="M 212,123 L 213,124 L 212,125 L 213,126 L 212,125 L 213,124 Z" fill="#efe1c4" stroke="none" /><path d="M 213,121 L 214,122 L 215,122 L 214,122 Z" fill="#efe1c4" stroke="none" /><path d="M 205,118 L 207,120 L 208,119 L 207,118 L 206,119 Z" fill="#efe1c4" stroke="none" /><path d="M 192,118 L 193,119 L 193,118 Z" fill="#efe1c4" stroke="none" /><path d="M 187,117 L 186,118 L 188,120 L 186,118 Z" fill="#efe1c4" stroke="none" /><path d="M 201,116 L 200,117 L 201,116 L 202,116 Z" fill="#efe1c4" stroke="none" /><path d="M 314,115 L 314,116 L 315,115 Z" fill="#efe1c4" stroke="none" /><path d="M 176,114 L 176,115 L 175,116 L 176,115 L 177,116 L 178,116 L 179,117 L 179,116 L 177,116 L 176,115 Z" fill="#efe1c4" stroke="none" /><path d="M 318,113 L 318,114 L 319,114 Z" fill="#efe1c4" stroke="none" /><path d="M 172,113 L 173,113 L 174,114 L 173,113 Z" fill="#efe1c4" stroke="none" /><path d="M 326,111 L 332,111 L 333,112 L 331,114 L 330,113 L 329,113 L 328,114 L 328,115 L 329,116 L 328,115 L 329,114 L 331,114 L 332,113 L 333,114 L 333,115 L 333,114 L 332,113 L 333,112 L 332,111 Z" fill="#efe1c4" stroke="none" /><path d="M 179,111 L 179,113 L 180,113 L 181,112 L 182,113 L 182,114 L 183,115 L 184,115 L 185,114 L 186,115 L 187,114 L 188,115 L 189,115 L 190,114 L 191,115 L 191,116 L 190,117 L 191,116 L 192,116 L 190,114 L 191,113 L 192,113 L 190,113 L 190,114 L 189,115 L 188,115 L 187,114 L 187,112 L 186,113 L 185,112 L 186,113 L 184,115 L 183,115 L 182,114 L 182,113 L 181,112 L 181,111 Z" fill="#efe1c4" stroke="none" /><path d="M 174,111 L 175,112 L 176,112 L 177,111 L 176,112 L 175,112 Z" fill="#efe1c4" stroke="none" /><path d="M 334,110 L 336,110 L 337,111 L 336,112 L 335,112 L 336,112 L 337,111 L 338,112 L 338,113 L 339,114 L 337,116 L 337,117 L 338,118 L 338,119 L 338,118 L 337,117 L 338,116 L 338,115 L 339,114 L 340,115 L 340,116 L 340,115 L 339,114 L 339,112 L 341,110 L 340,111 L 339,110 Z" fill="#efe1c4" stroke="none" /><path d="M 164,110 L 165,111 L 166,111 L 167,112 L 169,110 L 170,111 L 172,111 L 172,110 L 166,110 L 165,111 Z" fill="#efe1c4" stroke="none" /><path d="M 344,109 L 343,110 L 344,110 L 345,109 L 346,110 L 346,111 L 344,113 L 343,112 L 342,112 L 343,112 L 344,113 L 342,115 L 342,117 L 341,118 L 340,118 L 341,118 L 342,117 L 342,115 L 344,113 L 345,114 L 344,113 L 345,112 L 346,112 L 347,111 L 347,110 L 348,109 Z" fill="#efe1c4" stroke="none" /><path d="M 255,287 L 254,288 L 253,288 L 253,290 L 254,290 L 255,291 L 255,292 L 257,292 L 258,291 L 257,291 L 255,289 Z" fill="#f4d87a" stroke="none" /><path d="M 249,286 L 250,287 L 249,288 L 249,292 L 250,292 L 251,293 L 249,291 L 249,290 L 250,289 L 251,290 L 251,288 Z" fill="#f4d87a" stroke="none" /><path d="M 267,170 L 267,172 L 268,173 L 267,174 L 268,175 L 267,174 L 268,173 L 267,172 Z" fill="#f4d87a" stroke="none" /><path d="M 272,163 L 272,164 L 273,165 L 274,165 L 273,165 L 272,164 Z" fill="#f4d87a" stroke="none" /><path d="M 269,160 L 270,161 L 269,162 L 270,161 Z" fill="#f4d87a" stroke="none" /><path d="M 264,160 L 265,161 L 265,162 L 264,163 L 264,165 L 264,163 L 265,162 L 266,162 L 267,163 L 266,164 L 267,165 L 266,166 L 267,165 L 266,164 L 267,163 L 267,162 L 266,161 L 267,160 L 266,161 L 265,161 Z" fill="#f4d87a" stroke="none" /><path d="M 317,157 L 318,158 L 318,157 Z" fill="#f4d87a" stroke="none" /><path d="M 274,157 L 274,158 L 273,159 L 272,159 L 273,160 L 273,159 L 274,158 L 276,160 L 276,161 L 275,162 L 276,161 L 276,160 L 274,158 Z" fill="#f4d87a" stroke="none" /><path d="M 312,155 L 312,156 L 313,157 L 312,156 Z" fill="#f4d87a" stroke="none" /><path d="M 209,153 L 209,154 L 210,153 Z" fill="#f4d87a" stroke="none" /><path d="M 317,152 L 317,153 L 318,154 L 320,152 L 318,154 L 317,153 Z" fill="#f4d87a" stroke="none" /><path d="M 195,152 L 196,152 L 197,153 L 196,152 Z" fill="#f4d87a" stroke="none" /><path d="M 326,151 L 326,152 L 327,152 Z" fill="#f4d87a" stroke="none" /><path d="M 312,151 L 311,152 L 310,152 L 311,152 Z" fill="#f4d87a" stroke="none" /><path d="M 227,151 L 228,152 L 228,151 Z" fill="#f4d87a" stroke="none" /><path d="M 200,150 L 201,151 L 201,152 L 200,153 L 201,152 L 202,153 L 202,154 L 204,154 L 203,153 L 204,152 L 204,151 L 202,153 L 201,152 L 201,151 Z" fill="#f4d87a" stroke="none" /><path d="M 285,149 L 286,150 L 286,151 L 286,150 Z" fill="#f4d87a" stroke="none" /><path d="M 209,149 L 208,150 L 208,151 L 210,151 L 209,151 L 208,150 Z" fill="#f4d87a" stroke="none" /><path d="M 324,147 L 325,147 L 326,148 L 325,149 L 326,148 L 327,149 L 327,148 L 326,148 L 325,147 Z" fill="#f4d87a" stroke="none" /><path d="M 316,147 L 316,148 L 317,149 L 317,150 L 318,150 L 316,148 Z" fill="#f4d87a" stroke="none" /><path d="M 279,147 L 280,148 L 281,147 Z" fill="#f4d87a" stroke="none" /><path d="M 240,147 L 239,148 L 240,147 L 241,148 L 241,149 L 241,148 Z" fill="#f4d87a" stroke="none" /><path d="M 229,147 L 230,148 L 231,148 L 232,149 L 234,147 L 233,147 L 233,148 L 232,149 L 231,148 L 230,148 Z" fill="#f4d87a" stroke="none" /><path d="M 227,147 L 227,148 L 228,149 L 227,148 Z" fill="#f4d87a" stroke="none" /><path d="M 311,146 L 309,148 L 310,147 L 311,148 L 310,147 Z" fill="#f4d87a" stroke="none" /><path d="M 178,146 L 179,147 L 179,146 Z" fill="#f4d87a" stroke="none" /><path d="M 224,145 L 224,146 L 225,147 L 224,146 L 225,145 L 226,145 Z" fill="#f4d87a" stroke="none" /><path d="M 306,144 L 308,144 L 309,145 L 308,144 Z" fill="#f4d87a" stroke="none" /><path d="M 302,144 L 302,148 L 304,146 L 305,147 L 305,146 L 304,146 L 303,147 L 302,146 Z" fill="#f4d87a" stroke="none" /><path d="M 273,143 L 273,144 L 272,145 L 272,146 L 270,148 L 270,149 L 269,150 L 271,150 L 272,151 L 271,152 L 271,153 L 270,154 L 268,152 L 267,153 L 267,154 L 268,155 L 269,155 L 270,156 L 269,155 L 270,154 L 271,154 L 271,152 L 272,151 L 273,151 L 274,152 L 273,153 L 274,154 L 272,156 L 275,153 L 276,153 L 277,154 L 276,153 L 276,151 L 274,151 L 273,150 L 273,149 L 274,148 L 274,147 L 275,146 L 277,148 L 276,149 L 277,148 L 275,146 L 276,145 L 275,146 L 274,145 L 274,144 Z" fill="#f4d87a" stroke="none" /><path d="M 229,143 L 229,145 L 230,144 L 230,143 Z" fill="#f4d87a" stroke="none" /><path d="M 283,141 L 283,143 L 282,144 L 283,144 Z" fill="#f4d87a" stroke="none" /><path d="M 236,141 L 235,142 L 234,142 L 237,142 Z" fill="#f4d87a" stroke="none" /><path d="M 306,140 L 306,141 L 305,142 L 306,141 L 307,141 L 308,142 Z" fill="#f4d87a" stroke="none" /><path d="M 285,140 L 286,141 L 287,140 L 286,141 Z" fill="#f4d87a" stroke="none" /><path d="M 173,110 L 173,111 L 172,112 L 170,112 L 169,111 L 167,113 L 166,112 L 165,112 L 166,113 L 166,115 L 167,116 L 167,117 L 168,116 L 169,117 L 169,118 L 168,119 L 168,120 L 169,121 L 170,121 L 171,122 L 170,123 L 169,123 L 170,124 L 170,125 L 171,125 L 172,126 L 172,127 L 171,128 L 171,129 L 172,130 L 172,132 L 173,133 L 173,135 L 174,136 L 174,138 L 175,139 L 176,139 L 177,138 L 179,138 L 180,139 L 180,140 L 181,140 L 182,141 L 182,142 L 181,143 L 180,143 L 178,141 L 178,140 L 178,142 L 181,145 L 184,142 L 185,142 L 187,144 L 185,146 L 184,146 L 185,146 L 187,144 L 188,144 L 189,145 L 185,149 L 184,148 L 186,150 L 185,149 L 186,148 L 188,148 L 187,147 L 189,145 L 187,143 L 187,141 L 188,140 L 187,139 L 187,138 L 188,137 L 189,138 L 190,138 L 192,140 L 191,141 L 190,141 L 189,142 L 191,144 L 191,145 L 192,146 L 191,147 L 190,147 L 190,148 L 191,148 L 191,147 L 192,146 L 193,146 L 192,145 L 193,144 L 195,144 L 195,143 L 196,142 L 197,143 L 201,143 L 203,141 L 204,142 L 205,142 L 206,143 L 205,144 L 204,144 L 203,145 L 203,146 L 201,148 L 203,146 L 204,146 L 205,147 L 204,148 L 205,147 L 206,148 L 207,148 L 206,148 L 205,147 L 206,146 L 208,146 L 209,147 L 210,147 L 211,148 L 212,147 L 213,148 L 213,149 L 212,150 L 213,150 L 213,148 L 211,146 L 209,146 L 208,145 L 208,144 L 204,140 L 203,140 L 198,135 L 199,134 L 200,134 L 201,135 L 202,135 L 203,136 L 204,136 L 205,137 L 206,137 L 208,139 L 209,139 L 210,140 L 211,140 L 213,142 L 214,142 L 216,144 L 215,143 L 217,141 L 219,141 L 220,142 L 219,143 L 218,143 L 219,143 L 220,142 L 221,143 L 221,144 L 220,145 L 219,145 L 220,145 L 221,144 L 222,144 L 224,142 L 224,141 L 225,140 L 226,140 L 227,141 L 226,142 L 227,142 L 228,141 L 230,141 L 231,140 L 232,141 L 231,140 L 229,140 L 228,139 L 229,138 L 229,136 L 230,135 L 232,137 L 231,138 L 232,138 L 234,140 L 234,138 L 228,132 L 228,131 L 227,130 L 226,130 L 225,129 L 224,129 L 222,127 L 222,126 L 220,126 L 219,125 L 219,124 L 218,124 L 217,123 L 214,123 L 212,121 L 211,121 L 209,119 L 207,121 L 205,119 L 206,118 L 205,117 L 201,117 L 200,116 L 199,116 L 198,115 L 197,115 L 196,114 L 196,115 L 195,116 L 194,115 L 194,114 L 191,114 L 190,115 L 189,114 L 189,113 L 188,112 L 188,114 L 187,115 L 185,113 L 186,112 L 185,113 L 184,112 L 183,112 L 182,111 L 182,112 L 180,114 L 179,114 L 178,113 L 178,111 L 177,112 L 176,111 L 175,111 L 174,110 Z" fill="#f4d87a" stroke="none" /><path d="M 341,109 L 339,111 L 338,111 L 337,112 L 336,111 L 334,111 L 333,110 L 332,110 L 333,111 L 332,112 L 325,112 L 324,113 L 319,113 L 320,114 L 319,115 L 318,115 L 317,114 L 317,113 L 316,114 L 314,114 L 313,115 L 312,115 L 311,116 L 308,116 L 307,117 L 306,117 L 305,118 L 304,118 L 303,119 L 302,119 L 301,120 L 299,120 L 297,122 L 296,122 L 296,123 L 295,124 L 292,124 L 290,126 L 289,126 L 287,128 L 287,129 L 286,130 L 285,129 L 283,131 L 283,132 L 282,133 L 281,133 L 281,134 L 280,135 L 279,135 L 278,136 L 278,137 L 276,139 L 276,140 L 275,141 L 275,142 L 276,143 L 275,142 L 275,141 L 276,140 L 278,142 L 278,143 L 278,141 L 279,140 L 280,141 L 280,140 L 282,138 L 283,139 L 285,137 L 286,138 L 288,138 L 289,139 L 291,139 L 292,140 L 291,141 L 291,142 L 290,143 L 291,144 L 290,145 L 291,144 L 292,145 L 293,145 L 294,144 L 293,143 L 293,142 L 294,141 L 295,142 L 297,142 L 295,142 L 293,140 L 295,138 L 296,139 L 296,140 L 296,139 L 297,138 L 298,139 L 298,140 L 298,138 L 299,137 L 301,137 L 302,138 L 301,139 L 300,139 L 300,140 L 302,138 L 303,138 L 304,137 L 305,137 L 306,136 L 307,136 L 308,135 L 309,135 L 310,134 L 311,134 L 312,135 L 312,136 L 310,138 L 309,138 L 308,139 L 309,140 L 310,140 L 310,138 L 311,137 L 312,137 L 313,136 L 311,134 L 312,133 L 313,133 L 314,134 L 315,133 L 316,133 L 317,134 L 316,135 L 317,135 L 318,136 L 317,137 L 316,137 L 315,138 L 314,138 L 315,139 L 315,140 L 314,141 L 313,140 L 313,141 L 312,142 L 313,142 L 314,141 L 315,142 L 315,143 L 313,145 L 315,143 L 316,144 L 317,144 L 319,146 L 319,147 L 320,146 L 319,146 L 317,144 L 318,143 L 320,143 L 321,144 L 326,144 L 328,146 L 329,145 L 330,146 L 330,147 L 329,148 L 330,147 L 331,147 L 332,148 L 330,150 L 329,150 L 330,150 L 331,151 L 330,152 L 329,152 L 329,153 L 328,154 L 328,155 L 327,156 L 326,155 L 326,154 L 326,155 L 327,156 L 328,155 L 328,154 L 331,151 L 330,150 L 334,146 L 334,145 L 335,144 L 335,143 L 336,142 L 335,142 L 335,144 L 334,145 L 333,144 L 332,145 L 331,144 L 331,143 L 332,142 L 333,142 L 332,142 L 331,141 L 331,140 L 332,139 L 333,140 L 334,140 L 335,139 L 336,140 L 337,139 L 337,138 L 338,137 L 338,136 L 339,135 L 339,133 L 340,132 L 339,131 L 341,129 L 341,127 L 342,126 L 341,127 L 340,126 L 340,125 L 341,124 L 342,124 L 342,123 L 343,122 L 343,120 L 344,119 L 344,117 L 345,116 L 345,115 L 346,114 L 346,113 L 347,112 L 346,113 L 345,113 L 344,112 L 345,111 L 345,110 L 344,111 L 343,111 L 342,110 L 343,109 Z" fill="#f4d87a" stroke="none" /><path d="M 256,281 L 256,283 L 255,284 L 255,285 L 254,286 L 252,284 L 253,283 L 253,282 L 253,283 L 252,284 L 251,284 L 250,285 L 249,285 L 250,286 L 251,286 L 252,287 L 252,290 L 251,291 L 250,290 L 251,291 L 252,290 L 253,291 L 254,291 L 253,291 L 252,290 L 252,288 L 253,287 L 254,287 L 255,286 L 256,286 L 256,284 L 257,283 L 258,284 L 258,287 L 256,289 L 257,290 L 258,289 L 257,288 L 258,287 L 258,285 L 259,284 L 258,284 L 256,282 L 257,281 L 258,281 Z" fill="#e7b44d" stroke="none" /><path d="M 254,279 L 253,280 L 254,280 L 255,279 L 256,279 Z" fill="#e7b44d" stroke="none" /><path d="M 252,277 L 251,278 L 251,279 L 250,280 L 249,280 L 251,280 L 251,278 Z" fill="#e7b44d" stroke="none" /><path d="M 252,274 L 252,275 L 253,274 Z" fill="#e7b44d" stroke="none" /><path d="M 254,270 L 255,271 L 256,271 L 255,271 Z" fill="#e7b44d" stroke="none" /><path d="M 256,263 L 257,264 L 255,266 L 256,265 L 257,266 L 256,265 L 257,264 Z" fill="#e7b44d" stroke="none" /><path d="M 253,262 L 254,263 L 253,264 L 254,263 Z" fill="#e7b44d" stroke="none" /><path d="M 250,260 L 249,261 L 251,263 L 249,261 Z" fill="#e7b44d" stroke="none" /><path d="M 256,255 L 257,255 L 258,256 L 257,255 Z" fill="#e7b44d" stroke="none" /><path d="M 256,197 L 257,198 L 258,197 L 259,198 L 259,200 L 259,198 L 258,197 L 257,198 Z" fill="#e7b44d" stroke="none" /><path d="M 256,193 L 256,194 L 257,195 L 258,194 L 257,195 L 256,194 Z" fill="#e7b44d" stroke="none" /><path d="M 249,185 L 249,186 L 248,187 L 247,187 L 248,187 L 249,188 L 248,187 L 250,185 L 252,187 L 252,186 L 253,185 L 252,185 L 251,186 L 250,185 Z" fill="#e7b44d" stroke="none" /><path d="M 281,178 L 282,178 L 283,179 L 282,178 Z" fill="#e7b44d" stroke="none" /><path d="M 237,178 L 235,180 L 234,180 L 235,180 L 236,179 L 237,180 L 236,179 Z" fill="#e7b44d" stroke="none" /><path d="M 221,176 L 220,177 L 219,177 L 221,177 L 222,176 L 223,177 L 223,178 L 223,177 L 222,176 Z" fill="#e7b44d" stroke="none" /><path d="M 226,175 L 227,176 L 226,177 L 225,177 L 226,177 L 227,176 Z" fill="#e7b44d" stroke="none" /><path d="M 295,174 L 294,175 L 295,176 L 296,176 L 295,176 L 294,175 L 295,174 L 296,174 Z" fill="#e7b44d" stroke="none" /><path d="M 278,174 L 278,175 L 279,176 L 278,177 L 278,178 L 278,177 L 279,176 L 278,175 Z" fill="#e7b44d" stroke="none" /><path d="M 218,173 L 215,176 L 214,175 L 214,176 L 215,176 L 216,175 L 217,176 L 216,175 Z" fill="#e7b44d" stroke="none" /><path d="M 231,169 L 230,170 L 231,171 L 230,172 L 231,173 L 230,174 L 230,175 L 230,174 L 231,173 L 232,174 L 233,174 L 234,173 L 233,172 L 232,172 L 230,170 Z" fill="#e7b44d" stroke="none" /><path d="M 286,167 L 286,169 L 287,170 L 286,171 L 285,171 L 287,171 L 287,170 L 286,169 Z" fill="#e7b44d" stroke="none" /><path d="M 268,151 L 269,152 L 268,153 L 269,154 L 270,153 L 270,152 L 271,151 L 272,152 L 273,152 L 272,152 L 271,151 Z" fill="#e7b44d" stroke="none" /><path d="M 194,142 L 193,143 L 194,143 Z" fill="#e7b44d" stroke="none" /><path d="M 217,137 L 218,138 L 219,137 L 220,137 L 219,137 L 218,138 Z" fill="#e7b44d" stroke="none" /><path d="M 213,137 L 211,139 L 212,140 L 211,141 L 212,140 L 213,141 L 214,140 L 215,141 L 214,140 L 214,138 Z" fill="#e7b44d" stroke="none" /><path d="M 328,136 L 327,137 L 326,137 L 327,137 L 328,138 L 329,138 L 330,137 L 329,138 L 328,138 L 327,137 Z" fill="#e7b44d" stroke="none" /><path d="M 224,136 L 224,137 L 227,140 L 226,141 L 225,141 L 224,140 L 225,141 L 225,142 L 222,145 L 221,145 L 220,144 L 220,143 L 221,142 L 222,142 L 221,142 L 220,141 L 221,140 L 220,139 L 219,140 L 217,140 L 219,140 L 221,142 L 220,143 L 220,144 L 221,145 L 220,146 L 219,146 L 218,145 L 218,144 L 217,143 L 218,142 L 217,142 L 216,143 L 217,144 L 217,145 L 218,146 L 222,146 L 223,147 L 222,148 L 221,148 L 222,148 L 223,149 L 223,150 L 224,150 L 225,151 L 226,151 L 227,150 L 228,150 L 229,151 L 229,153 L 228,154 L 227,153 L 226,153 L 233,160 L 234,160 L 235,159 L 236,159 L 236,157 L 235,156 L 236,155 L 237,155 L 238,156 L 239,155 L 240,156 L 240,157 L 239,158 L 238,158 L 238,159 L 240,157 L 241,157 L 242,158 L 242,160 L 241,161 L 242,162 L 241,163 L 239,163 L 239,164 L 238,165 L 237,164 L 236,164 L 235,163 L 236,162 L 237,162 L 238,161 L 239,161 L 238,161 L 237,162 L 236,161 L 236,162 L 235,163 L 239,167 L 240,167 L 241,168 L 240,169 L 240,170 L 240,169 L 241,168 L 242,169 L 243,169 L 245,171 L 244,172 L 245,171 L 246,171 L 247,170 L 248,171 L 249,170 L 250,171 L 250,172 L 249,173 L 249,174 L 247,176 L 246,176 L 245,175 L 246,174 L 245,175 L 244,174 L 246,176 L 246,177 L 245,178 L 244,177 L 244,178 L 245,178 L 248,181 L 247,182 L 245,182 L 247,182 L 248,183 L 251,183 L 251,181 L 250,180 L 250,179 L 251,178 L 252,179 L 252,178 L 251,178 L 250,177 L 251,176 L 251,174 L 250,174 L 249,173 L 250,172 L 250,171 L 249,170 L 249,169 L 248,168 L 249,167 L 247,167 L 246,166 L 247,165 L 248,165 L 247,165 L 246,164 L 247,163 L 248,163 L 247,162 L 245,162 L 244,163 L 243,163 L 242,162 L 245,159 L 246,160 L 245,159 L 246,158 L 244,156 L 244,153 L 243,152 L 243,151 L 242,150 L 241,151 L 240,150 L 240,148 L 239,147 L 240,146 L 239,146 L 238,145 L 238,143 L 234,143 L 233,142 L 234,141 L 235,141 L 236,140 L 235,139 L 235,140 L 234,141 L 232,139 L 233,138 L 232,139 L 231,139 L 230,138 L 231,137 L 230,136 L 230,138 L 229,139 L 227,137 L 229,139 L 228,140 L 227,140 L 224,137 Z" fill="#e7b44d" stroke="none" /><path d="M 188,136 L 189,136 L 191,138 L 190,139 L 189,139 L 188,138 L 188,139 L 187,140 L 188,141 L 188,143 L 189,144 L 188,145 L 187,145 L 185,143 L 184,143 L 183,144 L 181,142 L 181,141 L 182,140 L 183,141 L 182,140 L 183,139 L 181,139 L 180,138 L 179,139 L 177,139 L 176,138 L 176,137 L 176,138 L 177,139 L 176,140 L 175,140 L 177,142 L 177,143 L 178,144 L 178,145 L 179,145 L 180,146 L 180,147 L 179,148 L 180,147 L 182,149 L 181,150 L 180,150 L 181,150 L 182,151 L 182,152 L 183,153 L 183,154 L 184,155 L 185,154 L 187,156 L 186,157 L 186,158 L 187,157 L 188,158 L 188,160 L 189,160 L 190,161 L 190,162 L 191,163 L 192,163 L 193,164 L 193,165 L 195,165 L 199,169 L 200,168 L 201,169 L 201,170 L 202,170 L 203,171 L 203,170 L 204,169 L 206,171 L 206,172 L 206,171 L 207,170 L 208,171 L 208,173 L 209,174 L 208,173 L 208,172 L 209,171 L 210,172 L 211,172 L 212,171 L 213,171 L 214,170 L 215,171 L 219,171 L 221,173 L 221,174 L 222,174 L 221,173 L 223,171 L 222,170 L 224,168 L 225,168 L 226,167 L 227,167 L 228,168 L 229,167 L 226,167 L 225,166 L 226,165 L 225,164 L 226,163 L 227,163 L 226,162 L 225,162 L 224,161 L 224,159 L 223,160 L 222,159 L 222,158 L 222,160 L 221,161 L 221,162 L 222,163 L 222,165 L 221,166 L 221,168 L 222,169 L 221,170 L 222,170 L 223,171 L 221,173 L 219,171 L 219,169 L 218,168 L 219,167 L 218,166 L 220,164 L 218,162 L 219,161 L 218,162 L 217,161 L 217,160 L 218,159 L 217,158 L 218,157 L 219,157 L 220,158 L 220,159 L 220,157 L 221,156 L 220,157 L 218,155 L 219,154 L 218,154 L 217,153 L 217,152 L 216,151 L 215,151 L 214,150 L 214,149 L 214,150 L 213,151 L 212,151 L 211,150 L 212,149 L 212,148 L 211,149 L 210,148 L 209,148 L 208,147 L 206,147 L 205,148 L 204,147 L 203,147 L 202,146 L 202,145 L 203,144 L 204,145 L 207,145 L 207,144 L 208,143 L 209,144 L 209,145 L 210,145 L 208,143 L 206,145 L 204,145 L 203,144 L 204,143 L 205,143 L 204,143 L 203,142 L 202,143 L 201,142 L 201,141 L 202,140 L 201,141 L 200,141 L 199,142 L 197,142 L 196,141 L 198,139 L 198,138 L 197,138 L 198,139 L 197,140 L 195,140 L 197,142 L 196,143 L 196,144 L 195,145 L 193,145 L 194,146 L 193,147 L 192,147 L 190,145 L 190,144 L 191,143 L 191,142 L 191,143 L 190,144 L 188,142 L 190,140 L 191,140 L 192,139 L 193,139 L 195,137 L 194,136 L 193,136 L 194,136 L 195,137 L 194,138 L 193,138 L 192,139 L 189,136 Z" fill="#e7b44d" stroke="none" /><path d="M 322,135 L 320,137 L 319,137 L 320,138 L 320,137 L 322,135 L 323,135 Z" fill="#e7b44d" stroke="none" /><path d="M 179,135 L 179,136 L 183,136 L 185,138 L 186,137 L 185,136 L 186,135 L 185,136 L 184,135 L 183,136 L 180,136 Z" fill="#e7b44d" stroke="none" /><path d="M 312,134 L 314,136 L 312,138 L 311,138 L 310,137 L 311,136 L 310,135 L 311,136 L 310,137 L 311,138 L 311,140 L 310,141 L 309,141 L 308,140 L 309,139 L 308,140 L 307,140 L 308,141 L 307,142 L 306,142 L 305,141 L 303,143 L 303,146 L 304,147 L 302,149 L 301,148 L 301,144 L 291,154 L 292,155 L 291,156 L 290,156 L 288,158 L 288,159 L 287,160 L 286,160 L 287,160 L 288,161 L 287,162 L 284,162 L 284,163 L 280,167 L 280,168 L 278,170 L 278,172 L 279,172 L 280,173 L 280,174 L 280,173 L 281,172 L 284,175 L 285,175 L 287,177 L 286,178 L 287,177 L 288,177 L 289,178 L 290,177 L 289,176 L 290,175 L 289,176 L 288,175 L 289,176 L 288,177 L 287,177 L 285,175 L 286,174 L 285,173 L 284,173 L 283,174 L 281,172 L 282,171 L 283,171 L 282,171 L 280,173 L 278,171 L 280,169 L 281,169 L 282,168 L 283,169 L 282,168 L 284,166 L 283,166 L 282,165 L 283,164 L 284,164 L 284,163 L 285,162 L 286,163 L 286,164 L 288,166 L 288,168 L 288,166 L 289,165 L 291,167 L 291,168 L 290,169 L 291,169 L 292,168 L 291,167 L 292,166 L 293,166 L 295,168 L 295,169 L 294,170 L 293,170 L 292,171 L 290,171 L 292,171 L 293,170 L 294,170 L 295,171 L 294,172 L 295,171 L 296,172 L 297,171 L 299,173 L 298,174 L 299,173 L 300,174 L 301,174 L 301,173 L 302,172 L 303,173 L 304,173 L 305,172 L 307,172 L 308,171 L 309,171 L 311,169 L 312,169 L 312,168 L 311,168 L 310,167 L 311,166 L 313,166 L 314,167 L 314,168 L 316,166 L 317,166 L 321,162 L 321,159 L 322,158 L 323,159 L 323,160 L 326,157 L 326,156 L 327,155 L 327,154 L 328,153 L 329,154 L 330,153 L 329,154 L 328,153 L 328,152 L 329,151 L 330,151 L 333,148 L 332,147 L 333,146 L 332,146 L 331,145 L 333,143 L 334,144 L 334,142 L 335,141 L 336,141 L 337,140 L 336,141 L 335,140 L 334,141 L 333,141 L 332,140 L 332,141 L 329,144 L 327,144 L 326,143 L 327,142 L 328,142 L 326,140 L 326,139 L 325,140 L 324,139 L 324,137 L 324,139 L 323,140 L 322,139 L 322,140 L 321,141 L 320,140 L 320,141 L 319,142 L 317,140 L 317,138 L 317,140 L 316,141 L 317,142 L 315,144 L 314,143 L 314,142 L 313,143 L 312,143 L 311,142 L 312,141 L 312,140 L 313,139 L 314,140 L 314,139 L 313,138 L 314,137 L 315,137 L 316,136 L 317,136 L 318,135 L 319,135 L 318,135 L 317,136 L 316,136 L 315,135 L 316,134 L 315,134 L 314,135 L 313,134 Z" fill="#e7b44d" stroke="none" /><path d="M 291,132 L 290,133 L 290,134 L 289,135 L 290,136 L 289,137 L 288,137 L 289,138 L 288,139 L 286,139 L 285,138 L 286,137 L 286,136 L 287,135 L 287,133 L 285,133 L 285,134 L 283,136 L 282,135 L 281,135 L 280,134 L 281,135 L 281,136 L 280,137 L 279,136 L 279,137 L 278,138 L 277,137 L 278,138 L 277,139 L 279,141 L 279,143 L 278,144 L 277,143 L 277,142 L 275,140 L 274,141 L 274,143 L 275,144 L 275,145 L 276,146 L 275,147 L 275,148 L 274,149 L 272,147 L 273,146 L 272,147 L 271,146 L 270,147 L 272,149 L 273,148 L 274,149 L 274,150 L 275,150 L 275,147 L 277,145 L 278,146 L 278,148 L 277,149 L 277,151 L 278,152 L 276,154 L 275,154 L 274,155 L 273,154 L 272,154 L 271,155 L 271,156 L 270,157 L 269,156 L 268,156 L 267,155 L 266,155 L 267,156 L 267,157 L 268,158 L 267,159 L 268,160 L 267,161 L 269,163 L 268,164 L 267,164 L 266,163 L 265,163 L 264,162 L 264,161 L 265,160 L 265,157 L 265,158 L 264,159 L 265,160 L 263,162 L 263,163 L 262,164 L 263,165 L 261,167 L 261,170 L 260,171 L 261,172 L 260,173 L 260,174 L 261,175 L 260,176 L 259,176 L 259,178 L 258,179 L 258,181 L 260,183 L 258,185 L 257,184 L 257,183 L 257,185 L 258,186 L 257,187 L 256,187 L 256,188 L 258,188 L 260,186 L 261,186 L 262,185 L 263,186 L 263,185 L 264,184 L 263,183 L 264,182 L 265,182 L 265,181 L 264,182 L 263,181 L 262,181 L 261,180 L 262,179 L 264,179 L 265,178 L 266,179 L 266,178 L 267,177 L 266,177 L 265,178 L 264,177 L 264,175 L 265,174 L 266,175 L 267,175 L 269,173 L 269,171 L 272,168 L 272,167 L 273,166 L 272,165 L 274,163 L 275,164 L 275,163 L 277,161 L 275,163 L 274,162 L 274,161 L 276,159 L 276,158 L 277,157 L 278,158 L 278,159 L 279,159 L 280,158 L 279,157 L 279,156 L 281,154 L 282,155 L 285,152 L 284,151 L 286,149 L 287,150 L 287,149 L 290,146 L 292,146 L 290,144 L 293,141 L 294,142 L 294,143 L 296,143 L 295,143 L 294,142 L 295,141 L 298,141 L 299,140 L 299,139 L 300,138 L 301,138 L 302,139 L 301,138 L 303,136 L 305,136 L 307,134 L 306,135 L 305,135 L 304,136 L 303,136 L 302,135 L 302,134 L 303,133 L 305,133 L 303,133 L 302,134 L 302,135 L 301,136 L 299,134 L 300,133 L 299,134 L 298,134 L 297,135 L 295,135 L 294,136 L 292,134 L 291,134 L 290,133 Z" fill="#e7b44d" stroke="none" /><path d="M 187,132 L 186,133 L 188,133 L 188,132 Z" fill="#e7b44d" stroke="none" /><path d="M 184,132 L 182,134 L 181,134 L 182,134 Z" fill="#e7b44d" stroke="none" /><path d="M 294,131 L 295,131 L 296,132 L 297,132 L 296,132 L 295,131 Z" fill="#e7b44d" stroke="none" /><path d="M 313,129 L 310,132 L 308,130 L 309,131 L 308,132 L 309,131 L 310,132 L 311,131 L 312,132 L 311,131 L 313,129 L 315,131 L 314,132 L 315,131 L 314,130 L 314,129 Z" fill="#e7b44d" stroke="none" /><path d="M 286,129 L 284,131 L 286,129 L 287,130 Z" fill="#e7b44d" stroke="none" /><path d="M 322,128 L 322,130 L 321,131 L 320,131 L 321,131 L 322,132 L 321,133 L 323,131 L 324,132 L 325,132 L 324,132 L 322,130 Z" fill="#e7b44d" stroke="none" /><path d="M 304,128 L 305,129 L 305,130 L 306,129 L 306,128 L 305,129 Z" fill="#e7b44d" stroke="none" /><path d="M 288,128 L 290,130 L 289,131 L 290,130 L 289,129 L 290,128 L 289,129 Z" fill="#e7b44d" stroke="none" /><path d="M 198,128 L 199,128 L 200,129 L 199,128 Z" fill="#e7b44d" stroke="none" /><path d="M 184,128 L 185,129 L 185,130 L 185,129 Z" fill="#e7b44d" stroke="none" /><path d="M 324,127 L 325,128 L 326,128 L 327,129 L 326,128 L 327,127 L 326,128 L 325,128 Z" fill="#e7b44d" stroke="none" /><path d="M 296,125 L 295,126 L 296,125 L 297,125 Z" fill="#e7b44d" stroke="none" /><path d="M 300,123 L 299,124 L 300,123 L 301,123 Z" fill="#e7b44d" stroke="none" /><path d="M 316,122 L 317,123 L 316,124 L 315,124 L 316,124 L 317,123 Z" fill="#e7b44d" stroke="none" /><path d="M 0,0 L 0,511 L 511,511 L 511,0 Z" fill="#103420" stroke="none" /><path d="M 335,297 L 335,301 L 334,302 L 283,302 L 334,302 L 335,301 Z" fill="#7b7d65" stroke="none" /><path d="M 249,232 L 249,235 L 248,236 L 178,236 L 248,236 L 249,235 Z" fill="#7b7d65" stroke="none" /><path d="M 249,287 L 250,288 L 251,287 L 250,288 Z" fill="#d2892e" stroke="none" /><path d="M 257,282 L 258,283 L 257,284 L 257,285 L 257,284 L 258,283 L 258,282 Z" fill="#d2892e" stroke="none" /><path d="M 257,182 L 258,183 L 258,184 L 260,182 L 259,183 L 258,182 Z" fill="#d2892e" stroke="none" /><path d="M 265,179 L 264,180 L 264,181 L 265,180 L 266,180 Z" fill="#d2892e" stroke="none" /><path d="M 265,175 L 265,177 L 266,176 L 267,176 L 266,176 Z" fill="#d2892e" stroke="none" /><path d="M 261,171 L 263,173 L 263,174 L 262,175 L 263,174 L 263,173 Z" fill="#d2892e" stroke="none" /><path d="M 267,167 L 267,168 L 268,169 L 267,168 Z" fill="#d2892e" stroke="none" /><path d="M 316,162 L 316,163 L 315,164 L 316,163 Z" fill="#d2892e" stroke="none" /><path d="M 289,162 L 286,165 L 285,164 L 285,163 L 285,164 L 284,165 L 283,165 L 281,167 L 281,168 L 282,169 L 281,170 L 280,170 L 279,171 L 280,172 L 279,173 L 278,173 L 277,172 L 277,171 L 276,172 L 276,174 L 275,175 L 274,175 L 274,176 L 273,177 L 273,178 L 271,180 L 271,181 L 273,181 L 274,180 L 276,180 L 277,179 L 278,180 L 280,180 L 281,179 L 282,179 L 283,178 L 284,179 L 286,179 L 287,178 L 288,178 L 287,178 L 286,177 L 287,176 L 288,176 L 289,175 L 291,177 L 290,178 L 291,178 L 293,176 L 294,177 L 294,176 L 295,175 L 296,175 L 297,176 L 298,175 L 300,175 L 298,173 L 299,172 L 300,172 L 301,171 L 302,171 L 303,172 L 302,173 L 302,174 L 302,173 L 304,171 L 304,170 L 305,169 L 306,169 L 307,170 L 307,171 L 308,170 L 309,170 L 309,169 L 311,167 L 312,167 L 313,168 L 313,169 L 313,167 L 311,167 L 309,169 L 308,169 L 307,170 L 306,169 L 306,168 L 307,167 L 308,167 L 307,167 L 306,166 L 309,163 L 310,164 L 311,164 L 312,165 L 313,164 L 312,165 L 310,163 L 309,163 L 307,165 L 306,165 L 306,166 L 305,167 L 304,166 L 304,164 L 304,166 L 303,167 L 302,167 L 301,166 L 301,165 L 302,164 L 302,163 L 301,164 L 299,164 L 298,165 L 296,163 L 297,162 L 294,162 L 295,162 L 298,165 L 297,166 L 296,166 L 294,164 L 293,165 L 295,165 L 296,166 L 294,168 L 293,167 L 292,167 L 291,166 L 291,165 L 290,165 L 288,163 Z" fill="#d2892e" stroke="none" /><path d="M 305,160 L 306,160 L 307,161 L 308,161 L 307,161 L 306,160 Z" fill="#d2892e" stroke="none" /><path d="M 312,158 L 311,159 L 310,159 L 311,159 Z" fill="#d2892e" stroke="none" /><path d="M 298,158 L 299,158 L 300,159 L 301,159 L 300,159 L 299,158 Z" fill="#d2892e" stroke="none" /><path d="M 267,158 L 266,159 L 266,160 L 266,159 Z" fill="#d2892e" stroke="none" /><path d="M 203,158 L 203,159 L 204,160 L 205,160 L 204,160 L 203,159 Z" fill="#d2892e" stroke="none" /><path d="M 306,157 L 305,158 L 306,157 L 307,158 Z" fill="#d2892e" stroke="none" /><path d="M 295,157 L 296,158 L 295,159 L 296,158 Z" fill="#d2892e" stroke="none" /><path d="M 204,156 L 205,157 L 205,156 Z" fill="#d2892e" stroke="none" /><path d="M 290,155 L 289,156 L 290,157 L 290,158 L 289,159 L 290,158 L 290,157 L 289,156 L 290,155 L 291,155 Z" fill="#d2892e" stroke="none" /><path d="M 219,155 L 221,157 L 221,159 L 220,160 L 219,159 L 219,158 L 218,158 L 217,159 L 216,159 L 215,160 L 214,160 L 213,161 L 213,162 L 213,161 L 214,160 L 215,161 L 216,161 L 216,160 L 217,159 L 218,160 L 218,161 L 221,164 L 219,166 L 218,165 L 218,164 L 217,165 L 216,165 L 215,164 L 216,163 L 215,163 L 215,164 L 214,165 L 215,166 L 213,168 L 212,167 L 212,166 L 211,166 L 210,165 L 211,164 L 212,164 L 211,163 L 211,164 L 210,165 L 209,165 L 208,164 L 209,163 L 208,162 L 210,160 L 208,162 L 207,161 L 206,162 L 205,162 L 204,163 L 205,164 L 206,164 L 207,165 L 206,166 L 206,167 L 205,168 L 204,167 L 203,167 L 202,166 L 202,167 L 203,167 L 204,168 L 203,169 L 202,169 L 203,169 L 204,170 L 204,172 L 205,172 L 206,173 L 207,173 L 208,174 L 209,173 L 210,174 L 210,175 L 211,174 L 212,174 L 213,175 L 213,176 L 213,175 L 214,174 L 217,177 L 218,177 L 219,176 L 220,176 L 221,175 L 222,175 L 223,176 L 221,178 L 222,178 L 222,177 L 223,176 L 224,177 L 224,178 L 226,178 L 227,179 L 227,178 L 228,177 L 229,178 L 229,179 L 232,179 L 233,180 L 234,179 L 235,179 L 236,180 L 237,179 L 238,180 L 236,178 L 236,176 L 235,175 L 235,174 L 234,174 L 233,175 L 232,175 L 231,174 L 232,173 L 231,172 L 232,171 L 233,171 L 232,170 L 231,170 L 230,169 L 231,168 L 229,166 L 229,165 L 228,164 L 226,164 L 224,162 L 225,161 L 225,160 L 225,161 L 224,162 L 223,161 L 223,162 L 224,162 L 225,163 L 224,164 L 223,164 L 224,165 L 223,166 L 222,166 L 221,165 L 221,163 L 220,162 L 220,161 L 221,160 L 221,157 Z" fill="#d2892e" stroke="none" /><path d="M 185,155 L 184,156 L 185,155 L 186,156 Z" fill="#d2892e" stroke="none" /><path d="M 311,154 L 310,155 L 311,156 L 310,157 L 311,156 L 310,155 Z" fill="#d2892e" stroke="none" /><path d="M 210,154 L 210,155 L 211,156 L 210,155 Z" fill="#d2892e" stroke="none" /><path d="M 234,153 L 235,154 L 235,155 L 237,157 L 237,159 L 236,160 L 235,160 L 234,159 L 235,160 L 234,161 L 234,162 L 235,162 L 236,163 L 237,163 L 239,165 L 239,166 L 238,167 L 237,166 L 239,168 L 239,169 L 240,168 L 241,169 L 241,170 L 240,171 L 241,171 L 242,172 L 242,173 L 243,174 L 243,176 L 244,176 L 245,177 L 245,176 L 246,175 L 247,175 L 248,176 L 247,177 L 247,179 L 246,180 L 245,179 L 244,179 L 245,180 L 245,181 L 247,181 L 246,180 L 248,178 L 250,178 L 251,179 L 251,180 L 250,181 L 249,180 L 249,181 L 250,181 L 251,180 L 252,181 L 252,183 L 251,184 L 248,184 L 247,183 L 246,183 L 246,184 L 247,185 L 246,186 L 248,186 L 249,187 L 248,188 L 247,188 L 247,190 L 248,191 L 248,196 L 249,197 L 249,202 L 250,203 L 250,204 L 251,205 L 250,206 L 250,212 L 251,213 L 250,214 L 250,223 L 251,224 L 250,225 L 250,226 L 251,227 L 250,228 L 250,235 L 249,236 L 249,237 L 250,238 L 249,239 L 250,240 L 249,241 L 249,242 L 250,242 L 251,243 L 250,244 L 249,244 L 249,254 L 250,255 L 249,256 L 249,260 L 250,261 L 249,262 L 249,268 L 250,269 L 249,270 L 249,272 L 250,273 L 249,274 L 249,276 L 250,277 L 249,278 L 249,279 L 250,279 L 250,278 L 251,277 L 252,278 L 252,280 L 251,281 L 249,281 L 250,281 L 251,282 L 250,283 L 249,283 L 249,284 L 250,284 L 251,285 L 252,285 L 253,286 L 254,285 L 253,284 L 254,283 L 255,283 L 255,281 L 256,280 L 258,280 L 258,279 L 257,278 L 258,277 L 258,276 L 257,275 L 258,274 L 258,273 L 257,272 L 257,271 L 258,270 L 257,269 L 258,268 L 258,259 L 257,258 L 258,257 L 257,256 L 258,255 L 258,250 L 257,249 L 258,248 L 258,223 L 257,222 L 257,219 L 258,218 L 257,217 L 257,213 L 258,212 L 257,211 L 258,210 L 258,206 L 257,205 L 258,204 L 258,203 L 259,202 L 259,201 L 258,200 L 258,198 L 259,197 L 260,197 L 259,196 L 261,194 L 261,192 L 260,191 L 261,190 L 262,190 L 262,188 L 263,187 L 261,185 L 261,184 L 261,185 L 262,186 L 261,187 L 260,187 L 259,186 L 258,187 L 257,186 L 256,186 L 257,186 L 259,188 L 258,189 L 256,189 L 255,188 L 254,189 L 253,188 L 253,187 L 254,186 L 253,186 L 253,187 L 252,188 L 250,186 L 252,184 L 253,184 L 252,183 L 253,182 L 252,181 L 252,180 L 250,178 L 251,177 L 250,176 L 250,175 L 249,175 L 248,174 L 248,173 L 249,172 L 250,173 L 251,173 L 250,173 L 249,172 L 249,171 L 250,170 L 249,171 L 248,170 L 247,171 L 246,170 L 246,169 L 247,168 L 246,168 L 244,166 L 243,166 L 242,165 L 243,164 L 242,165 L 241,164 L 240,164 L 239,165 L 238,164 L 238,163 L 239,162 L 241,162 L 242,161 L 243,162 L 244,162 L 245,163 L 246,163 L 247,164 L 246,163 L 245,163 L 244,162 L 244,161 L 245,160 L 246,161 L 247,160 L 246,161 L 244,159 L 245,160 L 243,162 L 241,160 L 241,158 L 240,158 L 239,157 L 239,156 L 239,157 L 240,158 L 239,159 L 239,160 L 240,161 L 239,162 L 238,162 L 237,161 L 237,156 L 236,156 L 235,155 L 235,154 Z" fill="#d2892e" stroke="none" /><path d="M 280,152 L 281,153 L 279,155 L 281,157 L 284,154 L 282,156 L 280,154 L 281,153 Z" fill="#d2892e" stroke="none" /><path d="M 226,152 L 227,152 L 228,153 L 227,152 Z" fill="#d2892e" stroke="none" /><path d="M 310,151 L 309,152 L 310,151 L 311,151 Z" fill="#d2892e" stroke="none" /><path d="M 296,150 L 298,152 L 297,153 L 298,152 L 300,154 L 301,154 L 300,154 L 298,152 L 299,151 L 298,150 L 297,151 Z" fill="#d2892e" stroke="none" /><path d="M 242,149 L 240,151 L 239,150 L 240,151 Z" fill="#d2892e" stroke="none" /></svg>